{
  "accessors": [
    {
      "bufferView": 2,
      "componentType": 5126,
      "count": 12634,
      "max": [
        59.63189697265625,
        17.61300277709961,
        147.69760131835938
      ],
      "min": [
        -59.63189697265625,
        -17.340099334716797,
        0.029093999415636063
      ],
      "type": "VEC3"
    },
    {
      "bufferView": 2,
      "byteOffset": 151608,
      "componentType": 5126,
      "count": 12634,
      "max": [
        0.9999314546585083,
        0.9999783635139465,
        0.9997443556785583
      ],
      "min": [
        -0.9997085332870483,
        -0.9999953508377075,
        -0.9997841119766235
      ],
      "type": "VEC3"
    },
    {
      "bufferView": 3,
      "componentType": 5126,
      "count": 12634,
      "max": [
        1.0,
        0.9998551607131958,
        0.9994066953659058,
        1.0
      ],
      "min": [
        -1.0,
        -0.9999861717224121,
        -0.9994128942489624,
        -1.0
      ],
      "type": "VEC4"
    },
    {
      "bufferView": 1,
      "componentType": 5126,
      "count": 12634,
      "max": [
        0.9975590109825134,
        0.9965819716453552
      ],
      "min": [
        0.003223000094294548,
        0.0008839964866638184
      ],
      "type": "VEC2"
    },
    {
      "bufferView": 1,
      "byteOffset": 101072,
      "componentType": 5126,
      "count": 12634,
      "max": [
        0.9975590109825134,
        0.9965819716453552
      ],
      "min": [
        0.003223000094294548,
        0.0008839964866638184
      ],
      "type": "VEC2"
    },
    {
      "bufferView": 1,
      "byteOffset": 202144,
      "componentType": 5126,
      "count": 12634,
      "max": [
        0.9975590109825134,
        0.9965819716453552
      ],
      "min": [
        0.003223000094294548,
        0.0008839964866638184
      ],
      "type": "VEC2"
    },
    {
      "bufferView": 1,
      "byteOffset": 303216,
      "componentType": 5126,
      "count": 12634,
      "max": [
        0.9975590109825134,
        0.9965819716453552
      ],
      "min": [
        0.003223000094294548,
        0.0008839964866638184
      ],
      "type": "VEC2"
    },
    {
      "bufferView": 1,
      "byteOffset": 404288,
      "componentType": 5126,
      "count": 12634,
      "max": [
        0.9975590109825134,
        0.9965819716453552
      ],
      "min": [
        0.003223000094294548,
        0.0008839964866638184
      ],
      "type": "VEC2"
    },
    {
      "bufferView": 1,
      "byteOffset": 505360,
      "componentType": 5126,
      "count": 12634,
      "max": [
        0.9975590109825134,
        0.9965819716453552
      ],
      "min": [
        0.003223000094294548,
        0.0008839964866638184
      ],
      "type": "VEC2"
    },
    {
      "bufferView": 1,
      "byteOffset": 606432,
      "componentType": 5126,
      "count": 12634,
      "max": [
        0.9975590109825134,
        0.9965819716453552
      ],
      "min": [
        0.003223000094294548,
        0.0008839964866638184
      ],
      "type": "VEC2"
    },
    {
      "bufferView": 1,
      "byteOffset": 707504,
      "componentType": 5126,
      "count": 12634,
      "max": [
        0.9975590109825134,
        0.9965819716453552
      ],
      "min": [
        0.003223000094294548,
        0.0008839964866638184
      ],
      "type": "VEC2"
    },
    {
      "bufferView": 1,
      "byteOffset": 808576,
      "componentType": 5126,
      "count": 12634,
      "max": [
        0.9975590109825134,
        0.9965819716453552
      ],
      "min": [
        0.003223000094294548,
        0.0008839964866638184
      ],
      "type": "VEC2"
    },
    {
      "bufferView": 1,
      "byteOffset": 909648,
      "componentType": 5126,
      "count": 12634,
      "max": [
        0.9975590109825134,
        0.9965819716453552
      ],
      "min": [
        0.003223000094294548,
        0.0008839964866638184
      ],
      "type": "VEC2"
    },
    {
      "bufferView": 0,
      "componentType": 5125,
      "count": 67584,
      "type": "SCALAR"
    },
    {
      "bufferView": 2,
      "byteOffset": 303216,
      "componentType": 5126,
      "count": 7555,
      "max": [
        16.445558547973633,
        11.449485778808594,
        171.971435546875
      ],
      "min": [
        -16.4455623626709,
        -20.616220474243164,
        142.96282958984375
      ],
      "type": "VEC3"
    },
    {
      "bufferView": 2,
      "byteOffset": 393876,
      "componentType": 5126,
      "count": 7555,
      "max": [
        0.999396026134491,
        0.9999582171440125,
        0.9999849796295166
      ],
      "min": [
        -0.999396026134491,
        -0.9999755024909973,
        -0.9995059967041016
      ],
      "type": "VEC3"
    },
    {
      "bufferView": 3,
      "byteOffset": 202144,
      "componentType": 5126,
      "count": 7555,
      "max": [
        0.9998854994773865,
        0.9997706413269043,
        0.9969438314437866,
        1.0
      ],
      "min": [
        -1.0,
        -0.9995521903038025,
        -0.998043954372406,
        -1.0
      ],
      "type": "VEC4"
    },
    {
      "bufferView": 1,
      "byteOffset": 1010720,
      "componentType": 5126,
      "count": 7555,
      "max": [
        0.9946290254592896,
        0.9985349774360657
      ],
      "min": [
        0.005981000140309334,
        0.017028987407684326
      ],
      "type": "VEC2"
    },
    {
      "bufferView": 1,
      "byteOffset": 1071160,
      "componentType": 5126,
      "count": 7555,
      "max": [
        0.9946290254592896,
        0.9985349774360657
      ],
      "min": [
        0.005981000140309334,
        0.017028987407684326
      ],
      "type": "VEC2"
    },
    {
      "bufferView": 1,
      "byteOffset": 1131600,
      "componentType": 5126,
      "count": 7555,
      "max": [
        0.9946290254592896,
        0.9985349774360657
      ],
      "min": [
        0.005981000140309334,
        0.017028987407684326
      ],
      "type": "VEC2"
    },
    {
      "bufferView": 1,
      "byteOffset": 1192040,
      "componentType": 5126,
      "count": 7555,
      "max": [
        0.9946290254592896,
        0.9985349774360657
      ],
      "min": [
        0.005981000140309334,
        0.017028987407684326
      ],
      "type": "VEC2"
    },
    {
      "bufferView": 1,
      "byteOffset": 1252480,
      "componentType": 5126,
      "count": 7555,
      "max": [
        0.9946290254592896,
        0.9985349774360657
      ],
      "min": [
        0.005981000140309334,
        0.017028987407684326
      ],
      "type": "VEC2"
    },
    {
      "bufferView": 1,
      "byteOffset": 1312920,
      "componentType": 5126,
      "count": 7555,
      "max": [
        0.9946290254592896,
        0.9985349774360657
      ],
      "min": [
        0.005981000140309334,
        0.017028987407684326
      ],
      "type": "VEC2"
    },
    {
      "bufferView": 1,
      "byteOffset": 1373360,
      "componentType": 5126,
      "count": 7555,
      "max": [
        0.9946290254592896,
        0.9985349774360657
      ],
      "min": [
        0.005981000140309334,
        0.017028987407684326
      ],
      "type": "VEC2"
    },
    {
      "bufferView": 1,
      "byteOffset": 1433800,
      "componentType": 5126,
      "count": 7555,
      "max": [
        0.9946290254592896,
        0.9985349774360657
      ],
      "min": [
        0.005981000140309334,
        0.017028987407684326
      ],
      "type": "VEC2"
    },
    {
      "bufferView": 1,
      "byteOffset": 1494240,
      "componentType": 5126,
      "count": 7555,
      "max": [
        0.9946290254592896,
        0.9985349774360657
      ],
      "min": [
        0.005981000140309334,
        0.017028987407684326
      ],
      "type": "VEC2"
    },
    {
      "bufferView": 1,
      "byteOffset": 1554680,
      "componentType": 5126,
      "count": 7555,
      "max": [
        0.9946290254592896,
        0.9985349774360657
      ],
      "min": [
        0.005981000140309334,
        0.017028987407684326
      ],
      "type": "VEC2"
    },
    {
      "bufferView": 0,
      "byteOffset": 270336,
      "componentType": 5125,
      "count": 34830,
      "type": "SCALAR"
    }
  ],
  "asset": {
    "extras": {
      "author": "9A Films / Nihar Arora (https://sketchfab.com/Nihar-9Afilms)",
      "license": "CC-BY-4.0 (http://creativecommons.org/licenses/by/4.0/)",
      "source": "https://sketchfab.com/3d-models/demogorgon-stranger-things-re-textured-ba737839f64243888bbca938fe7c605d",
      "title": "Demogorgon (Stranger Things) Re-Textured"
    },
    "generator": "Sketchfab-13.74.0",
    "version": "2.0"
  },
  "bufferViews": [
    {
      "buffer": 0,
      "byteLength": 409656,
      "name": "floatBufferViews",
      "target": 34963
    },
    {
      "buffer": 0,
      "byteLength": 1615120,
      "byteOffset": 409656,
      "byteStride": 8,
      "name": "floatBufferViews",
      "target": 34962
    },
    {
      "buffer": 0,
      "byteLength": 484536,
      "byteOffset": 2024776,
      "byteStride": 12,
      "name": "floatBufferViews",
      "target": 34962
    },
    {
      "buffer": 0,
      "byteLength": 323024,
      "byteOffset": 2509312,
      "byteStride": 16,
      "name": "floatBufferViews",
      "target": 34962
    }
  ],
  "buffers": [
    {
      "byteLength": 2832336,
      "uri": "scene.bin"
    }
  ],
  "images": [
    {
      "uri": "textures/Body_baseColor.png"
    },
    {
      "uri": "textures/Body_metallicRoughness.png"
    },
    {
      "uri": "textures/Body_normal.png"
    },
    {
      "uri": "textures/Head_baseColor.png"
    },
    {
      "uri": "textures/Head_metallicRoughness.png"
    },
    {
      "uri": "textures/Head_normal.png"
    }
  ],
  "materials": [
    {
      "doubleSided": true,
      "name": "Body",
      "normalTexture": {
        "index": 2
      },
      "pbrMetallicRoughness": {
        "baseColorTexture": {
          "index": 0
        },
        "metallicRoughnessTexture": {
          "index": 1
        }
      }
    },
    {
      "doubleSided": true,
      "name": "Head",
      "normalTexture": {
        "index": 5
      },
      "pbrMetallicRoughness": {
        "baseColorTexture": {
          "index": 3
        },
        "metallicRoughnessTexture": {
          "index": 4
        }
      }
    }
  ],
  "meshes": [
    {
      "name": "Demogorgan_Body_0",
      "primitives": [
        {
          "attributes": {
            "NORMAL": 1,
            "POSITION": 0,
            "TANGENT": 2,
            "TEXCOORD_0": 3,
            "TEXCOORD_1": 4,
            "TEXCOORD_2": 5,
            "TEXCOORD_3": 6,
            "TEXCOORD_4": 7,
            "TEXCOORD_5": 8,
            "TEXCOORD_6": 9,
            "TEXCOORD_7": 10,
            "TEXCOORD_8": 11,
            "TEXCOORD_9": 12
          },
          "indices": 13,
          "material": 0,
          "mode": 4
        }
      ]
    },
    {
      "name": "Demogorgan_Head_0",
      "primitives": [
        {
          "attributes": {
            "NORMAL": 15,
            "POSITION": 14,
            "TANGENT": 16,
            "TEXCOORD_0": 17,
            "TEXCOORD_1": 18,
            "TEXCOORD_2": 19,
            "TEXCOORD_3": 20,
            "TEXCOORD_4": 21,
            "TEXCOORD_5": 22,
            "TEXCOORD_6": 23,
            "TEXCOORD_7": 24,
            "TEXCOORD_8": 25,
            "TEXCOORD_9": 26
          },
          "indices": 27,
          "material": 1,
          "mode": 4
        }
      ]
    }
  ],
  "nodes": [
    {
      "children": [
        1
      ],
      "matrix": [
        1.0,
        0.0,
        0.0,
        0.0,
        0.0,
        2.220446049250313e-16,
        -1.0,
        0.0,
        0.0,
        1.0,
        2.220446049250313e-16,
        0.0,
        0.0,
        0.0,
        0.0,
        1.0
      ],
      "name": "Sketchfab_model"
    },
    {
      "children": [
        2
      ],
      "matrix": [
        0.02539999969303608,
        0.0,
        0.0,
        0.0,
        0.0,
        0.0,
        0.02539999969303608,
        0.0,
        0.0,
        -0.02539999969303608,
        0.0,
        0.0,
        0.0,
        0.0,
        0.0,
        1.0
      ],
      "name": "022c317dec634f509182c2f8d1eee797.fbx"
    },
    {
      "children": [
        3
      ],
      "name": "RootNode"
    },
    {
      "children": [
        4,
        5
      ],
      "matrix": [
        0.6869180202484131,
        0.0,
        0.0,
        0.0,
        0.0,
        1.5252644042194354e-16,
        -0.6869180202484131,
        0.0,
        0.0,
        0.6869180202484131,
        1.5252644042194354e-16,
        0.0,
        0.0,
        0.0,
        0.0,
        1.0
      ],
      "name": "Demogorgan"
    },
    {
      "mesh": 0,
      "name": "Demogorgan_Body_0"
    },
    {
      "mesh": 1,
      "name": "Demogorgan_Head_0"
    }
  ],
  "samplers": [
    {
      "magFilter": 9729,
      "minFilter": 9987,
      "wrapS": 10497,
      "wrapT": 10497
    }
  ],
  "scene": 0,
  "scenes": [
    {
      "name": "Sketchfab_Scene",
      "nodes": [
        0
      ]
    }
  ],
  "textures": [
    {
      "sampler": 0,
      "source": 0
    },
    {
      "sampler": 0,
      "source": 1
    },
    {
      "sampler": 0,
      "source": 2
    },
    {
      "sampler": 0,
      "source": 3
    },
    {
      "sampler": 0,
      "source": 4
    },
    {
      "sampler": 0,
      "source": 5
    }
  ]
}
